<svg xmlns="http://www.w3.org/2000/svg" width="1200" height="675" viewBox="0 0 1200 675" role="img" aria-labelledby="title desc">
  <title id="title">Saxenda card image</title>
  <desc id="desc">Illustrated card showing Saxenda liraglutide daily injection.</desc>
  <defs>
    <linearGradient id="bg" x1="0" y1="0" x2="1" y2="1">
      <stop offset="0" stop-color="#fff0e7"/>
      <stop offset="1" stop-color="#ffd8c2"/>
    </linearGradient>
    <linearGradient id="pen" x1="0" y1="0" x2="0" y2="1">
      <stop offset="0" stop-color="#ef7a2d"/>
      <stop offset="1" stop-color="#d15b12"/>
    </linearGradient>
  </defs>
  <rect x="0" y="0" width="1200" height="675" fill="url(#bg)"/>
  <rect x="50" y="50" width="1100" height="575" rx="28" fill="#ffffff" fill-opacity="0.72"/>
  <rect x="130" y="220" width="430" height="86" rx="43" fill="#fff8f4" stroke="#ffc39d" stroke-width="4"/>
  <text x="164" y="275" font-family="Arial, Helvetica, sans-serif" font-size="56" font-weight="700" fill="#a74110">Saxenda</text>
  <text x="136" y="346" font-family="Arial, Helvetica, sans-serif" font-size="36" fill="#8f3a0f">Liraglutide 3.0 mg daily</text>
  <text x="136" y="396" font-family="Arial, Helvetica, sans-serif" font-size="30" fill="#b1511d">Health Canada marketed</text>
  <g transform="translate(790 90)">
    <rect x="95" y="45" width="90" height="430" rx="35" fill="url(#pen)"/>
    <rect x="115" y="20" width="50" height="45" rx="12" fill="#c94e10"/>
    <rect x="118" y="405" width="44" height="70" rx="14" fill="#fffdf9" stroke="#f19d67" stroke-width="4"/>
    <rect x="137" y="475" width="6" height="48" fill="#8f3a0f"/>
    <circle cx="140" cy="527" r="8" fill="#8f3a0f"/>
    <path d="M20 210 C 90 160, 205 160, 280 225" fill="none" stroke="#e97a3f" stroke-width="16" stroke-linecap="round" opacity="0.4"/>
    <path d="M20 280 C 90 230, 205 230, 280 295" fill="none" stroke="#e97a3f" stroke-width="16" stroke-linecap="round" opacity="0.4"/>
  </g>
</svg>
