<svg xmlns="http://www.w3.org/2000/svg" width="1200" height="675" viewBox="0 0 1200 675" role="img" aria-labelledby="title desc">
  <title id="title">Wegovy card image</title>
  <desc id="desc">Illustrated card showing Wegovy semaglutide weekly injection.</desc>
  <defs>
    <linearGradient id="bg" x1="0" y1="0" x2="1" y2="1">
      <stop offset="0" stop-color="#dff7ef"/>
      <stop offset="1" stop-color="#b8ebda"/>
    </linearGradient>
    <linearGradient id="pill" x1="0" y1="0" x2="0" y2="1">
      <stop offset="0" stop-color="#00a76f"/>
      <stop offset="1" stop-color="#028a5d"/>
    </linearGradient>
  </defs>
  <rect x="0" y="0" width="1200" height="675" fill="url(#bg)"/>
  <rect x="50" y="50" width="1100" height="575" rx="28" fill="#ffffff" fill-opacity="0.7"/>
  <rect x="130" y="220" width="420" height="86" rx="43" fill="#f0fdf7" stroke="#82d8b7" stroke-width="4"/>
  <text x="164" y="275" font-family="Arial, Helvetica, sans-serif" font-size="56" font-weight="700" fill="#055a3f">Wegovy</text>
  <text x="136" y="346" font-family="Arial, Helvetica, sans-serif" font-size="36" fill="#0f4d3b">Semaglutide 2.4 mg weekly</text>
  <text x="136" y="396" font-family="Arial, Helvetica, sans-serif" font-size="30" fill="#256755">Health Canada marketed</text>
  <g transform="translate(770 120)">
    <rect x="70" y="40" width="120" height="400" rx="35" fill="url(#pill)"/>
    <rect x="90" y="20" width="80" height="50" rx="16" fill="#07744e"/>
    <rect x="108" y="380" width="44" height="70" rx="14" fill="#f7fffb" stroke="#49b68b" stroke-width="4"/>
    <rect x="128" y="450" width="4" height="60" fill="#0e5f45"/>
    <circle cx="130" cy="517" r="8" fill="#0e5f45"/>
    <rect x="0" y="110" width="70" height="40" rx="20" fill="#13a16f" fill-opacity="0.4"/>
    <rect x="190" y="240" width="120" height="40" rx="20" fill="#13a16f" fill-opacity="0.4"/>
  </g>
</svg>
